<svg width="24" height="25" viewBox="0 0 24 25" fill="none" xmlns="http://www.w3.org/2000/svg">
<path d="M15.24 2.5H11.346C9.582 2.5 8.184 2.5 7.091 2.648C5.965 2.8 5.054 3.12 4.336 3.841C3.617 4.562 3.298 5.477 3.147 6.607C3 7.705 3 9.108 3 10.879V16.717C3 18.225 3.92 19.517 5.227 20.059C5.16 19.149 5.16 17.874 5.16 16.812V11.802C5.16 10.521 5.16 9.416 5.278 8.532C5.405 7.584 5.691 6.676 6.425 5.939C7.159 5.202 8.064 4.915 9.008 4.787C9.888 4.669 10.988 4.669 12.265 4.669H15.335C16.611 4.669 17.709 4.669 18.59 4.787C18.3261 4.11329 17.8653 3.53474 17.2678 3.12678C16.6702 2.71883 15.9635 2.50041 15.24 2.5Z" fill="#534C4C"/>
<path d="M6.6001 11.8968C6.6001 9.17077 6.6001 7.80777 7.4441 6.96077C8.2871 6.11377 9.6441 6.11377 12.3601 6.11377H15.2401C17.9551 6.11377 19.3131 6.11377 20.1571 6.96077C21.0011 7.80777 21.0001 9.17077 21.0001 11.8968V16.7168C21.0001 19.4428 21.0001 20.8058 20.1571 21.6528C19.3131 22.4998 17.9551 22.4998 15.2401 22.4998H12.3601C9.6451 22.4998 8.2871 22.4998 7.4441 21.6528C6.6001 20.8058 6.6001 19.4428 6.6001 16.7168V11.8968Z" fill="#534C4C"/>
</svg>
